# xmcd
#
# Track frame offsets:
#	150
#	12935
#	31684
#	47198
#	65316
#	82868
#	97166
#	114314
#	134356
#	149265
#
# Disc length: 2205 seconds
#
# Revision: 1
# Processed by: cddbd v1.5.2PL0 Copyright (c) Steve Scherf et al.
# Submitted via: EasyCDDAExtractor 10.0.2.1
#
DISCID=7c089b0a
DTITLE=Gary Morris - Greatest Hits Vol. II
DYEAR=2008
DGENRE=Country
TTITLE0=Why Lady Why
TTITLE1=Second Hand Heart
TTITLE2=Makin' Up For Lost Time (Duet With Crystal Gayle)
TTITLE3=Between Two Fires
TTITLE4=Plain Brown Wrapper
TTITLE5=Don't Look Back
TTITLE6=You're Welcome To Tonight (Duet With Lynn Anderson)
TTITLE7=Honeycomb
TTITLE8=Dreams Die Hard
TTITLE9=Another World (Duet With Crystal Gayle)
EXTD=
EXTT0=
EXTT1=
EXTT2=
EXTT3=
EXTT4=
EXTT5=
EXTT6=
EXTT7=
EXTT8=
EXTT9=
PLAYORDER=
